<svg xmlns="http://www.w3.org/2000/svg" width="306" height="159" viewBox="0 0 306 159">
    <path fill="#fff" opacity="0.6" fill-rule="evenodd" d="M281.116 27.111c0-1.76-.503-2.262-2.261-2.262H262.39c-1.76 0-2.264.502-2.264 2.262v6.782c0 1.384.377 1.758 2.643 2.386l25.132 6.283C300.218 45.7 306 48.089 306 60.65v16.203c0 11.557-5.532 17.084-17.094 17.084h-35.565c-11.562 0-17.091-5.527-17.091-17.084V64.794h23.629v8.04c0 1.76.5 2.262 2.26 2.262h17.969c1.76 0 2.263-.503 2.263-2.263v-7.66c0-1.382-.626-1.76-2.64-2.263L254.6 56.504c-12.317-3.14-18.1-5.527-18.1-18.088V23.09c0-11.556 5.53-17.086 17.092-17.086h34.057c11.562 0 17.094 5.53 17.094 17.086V34.27h-23.626V27.11zM29.884 93.937H0V74.58h7.01v-49.22H0V6h29.884L72.12 59.767V25.359h-7.01V6h67.999v19.359H94.991v14.695h30.03v19.361h-30.03v34.522H72.12L29.884 40.173v53.764zm146.81 0h-34.016V74.58h6.13v-49.22h-6.13V6h34.017v19.359h-5.015v14.579h26.955v-14.58h-5.966V6h34.012v19.359h-5.178v49.22h5.178v19.358H192.67V74.58h5.966V57.665H171.68V74.58h5.015v19.358zM.524 151.895v-39.792h10.35l19.113 24.329v-24.33H40.28v39.793H29.986l-19.113-24.33v24.33H.523zm71.803-31.032H60.023v6.65H71.64v8.76H60.023v6.862h12.303v8.76H49.677v-39.792h22.649v8.76zm25.711 0v31.032H87.69v-31.032h-8.5v-8.76h27.35v8.76h-8.502zm25.132-8.76l6.862 25.703 8.447-25.703h8.236l8.447 25.703 6.864-25.703h10.824l-11.881 39.792H150.41l-7.818-23.062-7.812 23.062h-10.56l-11.878-39.792h10.826zm64.146 19.896c0 1.584.298 3.044.897 4.38a10.983 10.983 0 0 0 5.993 5.78c1.354.545 2.788.817 4.3.817 1.516 0 2.95-.272 4.305-.817a11.31 11.31 0 0 0 3.59-2.299 10.857 10.857 0 0 0 2.454-3.48c.6-1.337.897-2.797.897-4.381 0-1.582-.297-3.042-.897-4.379-.599-1.337-1.416-2.5-2.454-3.485a11.383 11.383 0 0 0-3.59-2.295 11.426 11.426 0 0 0-4.304-.816c-1.513 0-2.947.272-4.301.816a11.016 11.016 0 0 0-3.564 2.295 11.032 11.032 0 0 0-2.43 3.485c-.598 1.337-.896 2.797-.896 4.379zm-10.823 0c0-2.956.544-5.706 1.636-8.258a20.582 20.582 0 0 1 4.54-6.675c1.936-1.901 4.251-3.386 6.943-4.46 2.692-1.075 5.658-1.612 8.895-1.612 3.202 0 6.161.537 8.87 1.611 2.71 1.075 5.042 2.56 6.996 4.46a20.313 20.313 0 0 1 4.566 6.676c1.092 2.552 1.634 5.302 1.634 8.258 0 2.955-.542 5.708-1.634 8.26a20.303 20.303 0 0 1-4.566 6.673c-1.954 1.9-4.287 3.388-6.996 4.46-2.709 1.074-5.668 1.611-8.87 1.611-3.237 0-6.203-.537-8.895-1.61-2.692-1.073-5.007-2.56-6.944-4.461a20.572 20.572 0 0 1-4.539-6.673c-1.092-2.552-1.636-5.305-1.636-8.26zm63.088-2.11h1.952c2.043 0 3.61-.422 4.702-1.269 1.087-.844 1.635-2.057 1.635-3.641 0-1.582-.548-2.797-1.635-3.639-1.092-.846-2.66-1.267-4.702-1.267h-1.952v9.817zm22.755 22.006h-12.882l-9.873-15.305v15.305h-10.348v-39.792h16.103c2.22 0 4.153.327 5.807.978 1.654.65 3.019 1.54 4.094 2.665a11.212 11.212 0 0 1 2.426 3.904c.548 1.478.818 3.062.818 4.75 0 3.027-.73 5.48-2.19 7.364-1.46 1.88-3.617 3.155-6.468 3.824l12.513 16.307zm16.79-23.381l12.619-16.411h12.775l-15.784 18.839L306 151.895h-13.412l-13.463-17.258v17.258h-10.349v-39.792h10.349v16.41z"/>
</svg>
